<?xml version="1.0" encoding="UTF-8"?>
<svg version="1.1" xmlns="http://www.w3.org/2000/svg" width="216" height="216">
<path d="M0 0 C1.08027969 -0.00686325 2.16055939 -0.0137265 3.27357483 -0.02079773 C6.84421948 -0.03909639 10.41442594 -0.035223 13.98510742 -0.02954102 C16.46986535 -0.03410199 18.95462201 -0.0394073 21.43937683 -0.04542542 C27.31586781 -0.05550761 33.19220296 -0.04938965 39.06868714 -0.03817183 C45.06965386 -0.02896512 51.07020571 -0.05361695 57.07112598 -0.07990932 C62.20390675 -0.09827927 67.33656068 -0.09797701 72.46936607 -0.0922718 C74.92729116 -0.09211862 77.38522487 -0.09816017 79.84311867 -0.11056328 C83.2850708 -0.12548214 86.72604663 -0.11478755 90.16796875 -0.09765625 C91.17863403 -0.10732422 92.18929932 -0.11699219 93.23059082 -0.12695312 C101.09869663 -0.04517383 107.40741631 1.92209267 113.02807617 7.65405273 C119.86024504 14.93857981 121.41919656 22.51084489 121.37573242 32.33374023 C121.37250977 33.62280273 121.36928711 34.91186523 121.3659668 36.23999023 C121.3576135 37.58634509 121.34914858 38.93269926 121.34057617 40.27905273 C121.33555447 41.64884278 121.33099274 43.01863459 121.3269043 44.38842773 C121.31514871 47.72701463 121.29871582 51.06551088 121.27807617 54.40405273 C118.4131568 55.22322298 115.89105534 55.52253398 112.9152832 55.50170898 C111.63211716 55.49675415 111.63211716 55.49675415 110.32302856 55.49169922 C109.4032724 55.48340088 108.48351624 55.47510254 107.53588867 55.46655273 C106.57592987 55.46276611 105.61597107 55.45897949 104.62692261 55.45507812 C100.53141952 55.43881675 96.43601747 55.41096975 92.34057617 55.38354492 C62.77408518 54.32070725 62.77408518 54.32070725 37.62963867 67.95874023 C30.13057043 75.91460451 27.23387582 85.77510463 27.07275391 96.5012207 C27.05280869 97.68199188 27.03286346 98.86276306 27.01231384 100.07931519 C26.9872451 101.96869308 26.9872451 101.96869308 26.96166992 103.89624023 C26.94088882 105.1973172 26.92010773 106.49839417 26.8986969 107.83889771 C26.84376501 111.28127992 26.79422965 114.72371903 26.74584961 118.16619873 C26.6954223 121.68563846 26.63984757 125.20499659 26.5847168 128.72436523 C26.47748909 135.61752353 26.37596705 142.51075569 26.27807617 149.40405273 C21.88561307 149.47887848 17.49349945 149.53296956 13.10058594 149.56884766 C11.60996019 149.58382316 10.11937766 149.60421093 8.62890625 149.63037109 C-11.67750898 149.97754749 -11.67750898 149.97754749 -20.03442383 142.15405273 C-20.83493164 141.42702148 -21.63543945 140.69999023 -22.46020508 139.95092773 C-28.37001886 133.2960079 -29.31270616 128.3481779 -29.25537109 119.67041016 C-29.26398666 118.61255814 -29.27260223 117.55470612 -29.28147888 116.46479797 C-29.30411857 112.97945446 -29.29740194 109.49491651 -29.28833008 106.00952148 C-29.29356739 103.57725283 -29.29984426 101.14498621 -29.30711365 98.71272278 C-29.31751491 93.61779212 -29.3129613 88.52314079 -29.29833984 83.42822266 C-29.28117368 76.91493373 -29.30462325 70.40252877 -29.33982944 63.88933849 C-29.36184599 58.86625883 -29.36035119 53.84338914 -29.35206413 48.82027626 C-29.35124656 46.41982366 -29.3580727 44.01935533 -29.37283516 41.61894798 C-29.39035391 38.25404816 -29.37567454 34.89071714 -29.35302734 31.52587891 C-29.36471954 30.54424774 -29.37641174 29.56261658 -29.38845825 28.55123901 C-29.27970106 20.56513754 -26.89542625 14.1004618 -21.65942383 8.00170898 C-21.02004883 7.49510742 -20.38067383 6.98850586 -19.72192383 6.46655273 C-19.08254883 5.9419043 -18.44317383 5.41725586 -17.78442383 4.87670898 C-17.10379883 4.39073242 -16.42317383 3.90475586 -15.72192383 3.40405273 C-14.75232475 2.62849281 -14.75232475 2.62849281 -13.76313782 1.83726501 C-9.2239653 -0.30188001 -4.95922686 -0.02195717 0 0 Z " fill="#D1D5DB" transform="translate(28.721923828125,-0.404052734375)"/>
<path d="M0 0 C1.49636742 -0.01007584 1.49636742 -0.01007584 3.02296448 -0.02035522 C6.31394464 -0.03931886 9.60472058 -0.04325895 12.89575195 -0.04541016 C15.19253116 -0.05184037 17.48930954 -0.0585689 19.78608704 -0.06558228 C24.6002492 -0.0775518 29.41433963 -0.08126354 34.22851562 -0.08007812 C40.37727237 -0.07987523 46.52556542 -0.10714932 52.67421246 -0.14162254 C57.41935815 -0.16393659 62.16439318 -0.16791424 66.90958595 -0.16685867 C69.17524624 -0.16920892 71.44090985 -0.17799971 73.70651817 -0.19352341 C76.88669991 -0.21326937 80.06589378 -0.20731067 83.24609375 -0.1953125 C84.16959625 -0.20655151 85.09309875 -0.21779053 86.04458618 -0.22937012 C93.92742367 -0.15435337 101.03903612 1.85919582 107.7590332 6.04052734 C114.64870954 13.12705157 116.83930516 17.8024705 116.73876953 27.79614258 C116.75088974 28.92402191 116.76300995 30.05190125 116.77549744 31.21395874 C116.8068914 34.92622443 116.79441118 38.63677815 116.77856445 42.34912109 C116.78514987 44.93930004 116.79336849 47.5294753 116.80314636 50.11964417 C116.81648885 55.54248003 116.80819713 60.9646706 116.78369141 66.38745117 C116.75589543 72.63750257 116.7752453 78.88612072 116.8185671 85.1360516 C116.85878136 91.17183844 116.85950867 97.20690911 116.84430504 103.24284554 C116.8421558 105.80042915 116.850621 108.35804512 116.87003517 110.91555595 C116.89261975 114.49657176 116.87021721 118.07464804 116.83642578 121.65551758 C116.85216644 122.70462814 116.8679071 123.75373871 116.88412476 124.8346405 C116.74062072 132.56355547 114.31040673 136.79967872 108.9465332 142.29052734 C102.12436558 148.61351197 96.1523221 149.74030136 87.15869141 149.7421875 C86.08308456 149.75386963 85.00747772 149.76555176 83.89927673 149.77758789 C80.34853158 149.81114068 76.79820413 149.82190846 73.24731445 149.82958984 C70.77117263 149.84177464 68.29503228 149.85426079 65.81889343 149.86703491 C60.62808936 149.88950496 55.43743201 149.89906424 50.24658203 149.90136719 C43.61322284 149.90664392 36.98109381 149.95794113 30.34806538 150.02088356 C25.23230752 150.06186307 20.11684373 150.07101026 15.00093651 150.07148361 C12.55661 150.0768517 10.11227966 150.09364566 7.66811562 150.12233353 C-15.38696279 150.37033248 -15.38696279 150.37033248 -23.19099426 144.23348999 C-31.23843205 135.83826765 -33.35919495 127.71468429 -33.328125 116.38305664 C-33.33323593 115.41298676 -33.33834686 114.44291687 -33.34361267 113.44345093 C-33.35746282 110.25048578 -33.35655511 107.05773764 -33.35424805 103.86474609 C-33.35813791 101.63426128 -33.36247318 99.4037772 -33.36723328 97.17329407 C-33.37468598 92.50214231 -33.37441138 87.83106614 -33.36914062 83.15991211 C-33.3633519 77.19163739 -33.38026742 71.2236736 -33.4034853 65.25545025 C-33.41826166 60.64931955 -33.41908894 56.04326302 -33.41597557 51.43711281 C-33.41648697 49.23762205 -33.42169045 47.03812693 -33.43178749 44.83865929 C-33.44420814 41.75429837 -33.43732603 38.67053395 -33.42578125 35.58618164 C-33.43342499 34.68870712 -33.44106873 33.7912326 -33.44894409 32.86656189 C-33.36884746 23.12087715 -31.05292418 14.3529012 -24.0534668 7.29052734 C-16.54578571 1.40126853 -9.35040585 -0.00907748 0 0 Z M-4.0534668 29.29052734 C-4.15401793 32.14607315 -4.18962223 34.97746757 -4.18286133 37.83349609 C-4.18461365 38.72936432 -4.18636597 39.62523254 -4.18817139 40.54824829 C-4.19259126 43.52486072 -4.18965144 46.50141426 -4.1862793 49.47802734 C-4.1869523 51.53686535 -4.18792229 53.59570328 -4.18917847 55.65454102 C-4.19065562 59.97559361 -4.18850031 64.29662558 -4.18383789 68.61767578 C-4.1781406 74.1698928 -4.18141951 79.72206149 -4.18741035 85.27427673 C-4.19101549 89.52746956 -4.1898776 93.78065083 -4.18728256 98.03384399 C-4.18661316 100.08167527 -4.18744217 102.12950758 -4.18976212 104.17733765 C-4.19228786 107.03410642 -4.18844916 109.89079577 -4.18286133 112.74755859 C-4.18488556 113.60266022 -4.18690979 114.45776184 -4.18899536 115.33877563 C-4.54347515 119.12116387 -4.54347515 119.12116387 -3.0534668 122.29052734 C-0.22843349 122.39106242 2.57218605 122.42668451 5.39770508 122.41992188 C6.28381973 122.42167419 7.16993439 122.42342651 8.082901 122.42523193 C11.02704802 122.42965174 13.97113551 122.42671201 16.9152832 122.42333984 C18.95170096 122.42401285 20.98811865 122.42498284 23.02453613 122.42623901 C27.29851036 122.42771616 31.57246374 122.42556089 35.84643555 122.42089844 C41.33811859 122.41520114 46.82975277 122.41848006 52.32143402 122.4244709 C56.52830375 122.42807606 60.73516179 122.42693814 64.94203186 122.42434311 C66.96753444 122.42367371 68.99303807 122.4245027 71.01853943 122.42682266 C73.8441755 122.42934845 76.66973127 122.42550965 79.49536133 122.41992188 C80.76398766 122.42295822 80.76398766 122.42295822 82.0582428 122.42605591 C85.80713066 122.77495112 85.80713066 122.77495112 88.9465332 121.29052734 C89.04175739 118.42960916 89.07206646 115.59289114 89.06005859 112.73168945 C89.06020462 111.83421494 89.06035065 110.93674042 89.0605011 110.0120697 C89.05980162 107.030646 89.05200762 104.04928395 89.04418945 101.06787109 C89.0423254 99.00663792 89.04090144 96.94540431 89.03990173 94.88417053 C89.03607558 89.44748724 89.02624446 84.01083049 89.01519775 78.57415771 C89.00498573 73.0310502 89.00040456 67.48793842 88.99536133 61.94482422 C88.98462228 51.06004691 88.96754469 40.17528933 88.9465332 29.29052734 C85.67736607 27.65594377 82.06594032 28.15240128 78.47363281 28.16113281 C77.5971257 28.15938049 76.72061859 28.15762817 75.81755066 28.15582275 C72.91130614 28.15141021 70.00512213 28.15433989 67.09887695 28.15771484 C65.08630868 28.15704169 63.07374048 28.15607158 61.06117249 28.15481567 C56.84025296 28.15333956 52.61935457 28.15549072 48.3984375 28.16015625 C42.97516418 28.16585714 37.5519403 28.1625717 32.12866879 28.15658379 C27.97241337 28.15297896 23.81616978 28.15411633 19.65991402 28.15671158 C17.65953122 28.15738088 15.65914736 28.15655233 13.65876579 28.15423203 C10.86916107 28.15170639 8.07963769 28.15554465 5.29003906 28.16113281 C4.03779541 28.15809647 4.03779541 28.15809647 2.76025391 28.15499878 C-0.94929063 27.81269734 -0.94929063 27.81269734 -4.0534668 29.29052734 Z " fill="#D2D6DB" transform="translate(100.053466796875,66.70947265625)"/>
</svg>
