<?xml version="1.0" encoding="UTF-8"?>
<svg version="1.1" xmlns="http://www.w3.org/2000/svg" width="216" height="216">
<path d="M0 0 C1.08682068 -0.01007584 2.17364136 -0.02015167 3.293396 -0.03053284 C6.88686411 -0.05903144 10.47991223 -0.064891 14.07348633 -0.06811523 C16.57587354 -0.0777569 19.07825905 -0.08784942 21.5806427 -0.09837341 C26.82869177 -0.11634091 32.07663459 -0.12202256 37.32470703 -0.12011719 C42.70323349 -0.11851682 48.08111256 -0.13959323 53.45947266 -0.18164062 C59.96223636 -0.23174868 66.4644192 -0.25228078 72.96737099 -0.25028801 C75.44041542 -0.25381898 77.91346636 -0.26703718 80.38640404 -0.29028511 C83.85462702 -0.31983034 87.32080336 -0.3109974 90.7890625 -0.29296875 C91.80188797 -0.30982727 92.81471344 -0.32668579 93.85823059 -0.34405518 C102.38940452 -0.23191743 108.68498701 2.82349374 114.65551758 8.92797852 C115.17114258 9.71430664 115.68676758 10.50063477 116.21801758 11.31079102 C117.02239258 12.48254883 117.02239258 12.48254883 117.84301758 13.67797852 C121.20676167 20.42457889 121.51297733 27.08499533 121.49267578 34.47265625 C121.49778671 35.44447845 121.50289764 36.41630066 121.50816345 37.41757202 C121.52199188 40.60990668 121.52110788 43.80202383 121.51879883 46.99438477 C121.5226892 49.22583597 121.52702457 51.45728644 121.53178406 53.68873596 C121.53923157 58.35810755 121.53896543 63.0274035 121.53369141 67.69677734 C121.52789601 73.66624261 121.54483687 79.63539767 121.56803608 85.60481167 C121.58280068 90.21089981 121.58364144 94.8169137 121.58052635 99.42302132 C121.5810381 101.62333859 121.58624817 103.82366019 121.59633827 106.02395439 C121.60873937 109.10601586 121.60188897 112.18747864 121.59033203 115.26953125 C121.59797577 116.16903 121.60561951 117.06852875 121.61349487 117.99528503 C121.53764297 127.1940026 119.13235331 135.20067619 112.72192383 142.02954102 C105.51132528 148.82382325 97.37694257 149.88683232 87.79223633 149.82397461 C86.79100739 149.82923157 85.78977844 149.83448853 84.75820923 149.83990479 C81.47381637 149.85302587 78.18991471 149.84439455 74.90551758 149.83422852 C72.60823474 149.83625151 70.31095253 149.83916483 68.01367188 149.84292603 C63.2090033 149.8473387 58.40450252 149.84095223 53.59985352 149.8269043 C47.45664613 149.80981327 41.31383202 149.81966009 35.17063904 149.83762169 C30.42986108 149.84848798 25.68917559 149.8450001 20.94839478 149.83723831 C18.68388827 149.83524418 16.41937324 149.83766779 14.15487671 149.84467697 C10.98429278 149.85233821 7.81433631 149.84062153 4.64379883 149.82397461 C3.71781891 149.8300473 2.79183899 149.83612 1.83779907 149.84237671 C-6.64162903 149.76034513 -13.77092865 148.10571369 -20.09448242 142.18579102 C-20.89499023 141.45875977 -21.69549805 140.73172852 -22.52026367 139.98266602 C-28.43007745 133.32774618 -29.37276475 128.37991618 -29.31542969 119.70214844 C-29.32404526 118.64429642 -29.33266083 117.5864444 -29.34153748 116.49653625 C-29.36417716 113.01119274 -29.35746054 109.52665479 -29.34838867 106.04125977 C-29.35362598 103.60899111 -29.35990286 101.17672449 -29.36717224 98.74446106 C-29.3775735 93.6495304 -29.3730199 88.55487907 -29.35839844 83.45996094 C-29.34123228 76.94667201 -29.36468185 70.43426705 -29.39988804 63.92107677 C-29.42190459 58.89799711 -29.42040978 53.87512743 -29.41212273 48.85201454 C-29.41130515 46.45156194 -29.4181313 44.05109361 -29.43289375 41.65068626 C-29.4504125 38.28578644 -29.43573314 34.92245542 -29.41308594 31.55761719 C-29.42477814 30.57598602 -29.43647034 29.59435486 -29.44851685 28.58297729 C-29.33975966 20.59687583 -26.95548484 14.13220008 -21.71948242 8.03344727 C-21.08010742 7.5268457 -20.44073242 7.02024414 -19.78198242 6.49829102 C-19.14260742 5.97364258 -18.50323242 5.44899414 -17.84448242 4.90844727 C-17.16385742 4.4224707 -16.48323242 3.93649414 -15.78198242 3.43579102 C-15.13682175 2.91940567 -14.49166107 2.40302032 -13.82695007 1.87098694 C-9.27308145 -0.27540489 -4.97620817 -0.00661368 0 0 Z " fill="#D1D5DB" transform="translate(28.781982421875,-0.435791015625)"/>
<path d="M0 0 C4.51765789 -0.09251177 9.0319494 -0.17192869 13.54980469 -0.21972656 C15.08214534 -0.23967724 16.61441152 -0.26684816 18.14648438 -0.30175781 C28.52986548 -0.53219839 37.71044925 -0.23192626 46.3125 6.3125 C52.23304537 12.23304537 54.55502403 15.83226244 54.69985962 24.19593811 C54.69288055 25.25066818 54.68590149 26.30539825 54.67871094 27.39208984 C54.69068512 28.51982315 54.7026593 29.64755646 54.71499634 30.8094635 C54.74712376 34.52697274 54.74236977 38.24331302 54.734375 41.9609375 C54.74282608 44.55254518 54.75246686 47.14414924 54.76324463 49.73574829 C54.77963044 55.1644797 54.77730422 60.59276304 54.76171875 66.02148438 C54.7442082 72.27886961 54.77057118 78.53497945 54.81868529 84.79217565 C54.86339229 90.83273265 54.86879005 96.87263286 54.85883331 102.91337967 C54.85919262 105.47376611 54.8704486 108.03417565 54.89293671 110.59446335 C54.92025118 114.18031927 54.90272161 117.76333355 54.87402344 121.34912109 C54.89133514 122.3998027 54.90864685 123.45048431 54.92648315 124.53300476 C54.79436675 132.27026404 52.37143437 136.50487539 47 142 C40.17783238 148.32298463 34.2057889 149.44977402 25.2121582 149.45166016 C24.13655136 149.46334229 23.06094452 149.47502441 21.95274353 149.48706055 C18.40199838 149.52061334 14.85167093 149.53138111 11.30078125 149.5390625 C8.82463943 149.5512473 6.34849908 149.56373345 3.87236023 149.57650757 C-1.31844385 149.59897762 -6.5091012 149.6085369 -11.69995117 149.61083984 C-18.33331036 149.61611658 -24.96543939 149.66741378 -31.59846783 149.73035622 C-36.71422568 149.77133572 -41.82968947 149.78048292 -46.94559669 149.78095627 C-49.3899232 149.78632436 -51.83425354 149.80311832 -54.27841759 149.83180618 C-77.333496 150.07980514 -77.333496 150.07980514 -85.13752747 143.94296265 C-92.31442776 136.45589966 -95.28206206 128.98847833 -95.1953125 118.53515625 C-95.1924826 117.85698349 -95.18965271 117.17881073 -95.18673706 116.48008728 C-95.17565416 114.34070234 -95.1505736 112.2017557 -95.125 110.0625 C-95.11495476 108.60091756 -95.10583163 107.13932847 -95.09765625 105.67773438 C-95.07746598 102.11819004 -95.03829791 98.55957829 -95 95 C-85.43 95 -75.86 95 -66 95 C-66 103.58 -66 112.16 -66 121 C-35.64 121 -5.28 121 26 121 C26.33 90.64 26.66 60.28 27 29 C18.09 28.67 9.18 28.34 0 28 C0 18.76 0 9.52 0 0 Z " fill="#D2D5DB" transform="translate(162,67)"/>
</svg>
